<svg width="1657" height="552" viewBox="0 0 1657 552" fill="none" xmlns="http://www.w3.org/2000/svg">
<path d="M1263.39 429.366C1355.61 594.982 1585.49 597.849 1607 407.369V59.9982H0V312.885C53.0165 348.381 77.9818 363.487 136.5 327.99C195.018 292.494 284.5 197.494 435.636 312.885C574.026 418.544 664.596 463.699 909.283 360.88C1023.5 312.885 1193.24 303.385 1263.39 429.366Z" fill="#00EA84"/>
<path d="M1283.39 409.367C1375.61 574.983 1605.49 577.849 1627 387.369V39.9987H20V292.885C73.0165 328.381 97.9818 343.487 156.5 307.991C215.018 272.494 304.5 177.495 455.636 292.885C594.026 398.545 684.596 443.7 929.283 340.88C1043.5 292.885 1213.24 283.386 1283.39 409.367Z" fill="#026F40"/>
<path d="M1313.39 399.367C1405.61 564.983 1635.49 567.85 1657 377.37V29.9992H50V282.885C103.016 318.382 127.982 333.487 186.5 297.991C245.018 262.495 334.5 167.495 485.636 282.885C624.026 388.545 714.596 433.7 959.283 330.881C1073.5 282.885 1243.24 273.386 1313.39 399.367Z" fill="#00321C"/>
<path d="M1293.39 369.368C1385.61 534.984 1615.49 537.851 1637 347.37V-6.10352e-05H30V252.886C83.0165 288.383 107.982 303.488 166.5 267.992C225.018 232.496 314.5 137.496 465.636 252.886C604.026 358.546 694.596 403.701 939.283 300.881C1053.5 252.886 1223.24 243.387 1293.39 369.368Z" fill="#010D08"/>
<path d="M1431.74 469.632C1432.16 475.947 1435.03 481.592 1439.4 485.632H1437.8C1429.71 483.505 1421.64 480.849 1413.65 477.669C1414.75 475.182 1415.43 472.475 1415.62 469.632H1431.74ZM1505.51 469.632C1505.93 475.947 1508.8 481.592 1513.17 485.632H1481.74C1486.11 481.592 1488.97 475.947 1489.4 469.632H1505.51ZM1567.32 469.632C1565.84 470.558 1564.35 471.455 1562.84 472.323C1563 471.442 1563.11 470.544 1563.17 469.632H1567.32ZM1357.91 419.452H1341.91V403.452H1357.91V419.452ZM1431.68 419.452H1415.68V403.452H1431.68V419.452ZM1505.45 419.452H1489.45V403.452H1505.45V419.452ZM1579.23 419.452H1563.23V403.452H1579.23V419.452ZM693.955 353.271H677.955V337.271H693.955V353.271ZM767.728 353.271H751.728V337.271H767.728V353.271ZM1284.14 353.271H1283.4C1279.49 347.62 1275.37 342.291 1271.03 337.271H1284.14V353.271ZM1357.91 353.271H1341.91V337.271H1357.91V353.271ZM1431.68 353.271H1415.68V337.271H1431.68V353.271ZM1505.45 353.271H1489.45V337.271H1505.45V353.271ZM1579.23 353.271H1563.23V337.271H1579.23V353.271ZM620.182 344.544C614.8 342.754 609.471 340.807 604.182 338.707V337.271H620.182V344.544ZM839.516 337.271C834.777 338.686 830.106 340.027 825.5 341.296V337.271H839.516ZM103.772 287.092H96.3545C93.4868 286.562 90.6337 285.853 87.7725 284.976V271.092H103.772V287.092ZM546.409 287.092H530.409V271.092H546.409V287.092ZM620.182 287.092H604.182V271.092H620.182V287.092ZM693.955 287.092H677.955V271.092H693.955V287.092ZM767.728 287.092H751.728V271.092H767.728V287.092ZM841.5 287.092H825.5V271.092H841.5V287.092ZM915.272 287.092H899.272V271.092H915.272V287.092ZM989.046 283.549C985.031 284.679 981.05 285.861 977.108 287.092H973.046V271.092H989.046V283.549ZM1210.36 287.092H1201.07C1198.85 286.16 1196.62 285.265 1194.36 284.406V271.092H1210.36V287.092ZM1284.14 287.092H1268.14V271.092H1284.14V287.092ZM1357.91 287.092H1341.91V271.092H1357.91V287.092ZM1431.68 287.092H1415.68V271.092H1431.68V287.092ZM1505.45 287.092H1489.45V271.092H1505.45V287.092ZM1579.23 287.092H1563.23V271.092H1579.23V287.092ZM1049.76 271.092C1048.78 271.218 1047.8 271.349 1046.82 271.482V271.092H1049.76ZM103.772 220.912H87.7725V204.912H103.772V220.912ZM177.546 220.912H161.546V204.912H177.546V220.912ZM251.318 215.133C247.365 216.973 243.501 218.908 239.721 220.912H235.318V204.912H251.318V215.133ZM472.637 220.912H456.637V204.912H472.637V220.912ZM546.409 220.912H530.409V204.912H546.409V220.912ZM620.182 220.912H604.182V204.912H620.182V220.912ZM693.955 220.912H677.955V204.912H693.955V220.912ZM767.728 220.912H751.728V204.912H767.728V220.912ZM841.5 220.912H825.5V204.912H841.5V220.912ZM915.272 220.912H899.272V204.912H915.272V220.912ZM989.046 220.912H973.046V204.912H989.046V220.912ZM1062.82 220.912H1046.82V204.912H1062.82V220.912ZM1136.59 220.912H1120.59V204.912H1136.59V220.912ZM1210.36 220.912H1194.36V204.912H1210.36V220.912ZM1284.14 220.912H1268.14V204.912H1284.14V220.912ZM1357.91 220.912H1341.91V204.912H1357.91V220.912ZM1431.68 220.912H1415.68V204.912H1431.68V220.912ZM1505.45 220.912H1489.45V204.912H1505.45V220.912ZM1579.23 220.912H1563.23V204.912H1579.23V220.912ZM398.864 213.04C393.436 210.748 388.103 208.738 382.863 206.991V204.912H398.864V213.04ZM103.772 154.732H87.7725V138.732H103.772V154.732ZM177.546 154.732H161.546V138.732H177.546V154.732ZM251.318 154.732H235.318V138.732H251.318V154.732ZM325.091 154.732H309.091V138.732H325.091V154.732ZM398.864 154.732H382.863V138.732H398.864V154.732ZM472.637 154.732H456.637V138.732H472.637V154.732ZM546.409 154.732H530.409V138.732H546.409V154.732ZM620.182 154.732H604.182V138.732H620.182V154.732ZM693.955 154.732H677.955V138.732H693.955V154.732ZM767.728 154.732H751.728V138.732H767.728V154.732ZM841.5 154.732H825.5V138.732H841.5V154.732ZM915.272 154.732H899.272V138.732H915.272V154.732ZM989.046 154.732H973.046V138.732H989.046V154.732ZM1062.82 154.732H1046.82V138.732H1062.82V154.732ZM1136.59 154.732H1120.59V138.732H1136.59V154.732ZM1210.36 154.732H1194.36V138.732H1210.36V154.732ZM1284.14 154.732H1268.14V138.732H1284.14V154.732ZM1357.91 154.732H1341.91V138.732H1357.91V154.732ZM1431.68 154.732H1415.68V138.732H1431.68V154.732ZM1505.45 154.732H1489.45V138.732H1505.45V154.732ZM1579.23 154.732H1563.23V138.732H1579.23V154.732ZM103.772 88.5518H87.7725V72.5518H103.772V88.5518ZM177.546 88.5518H161.546V72.5518H177.546V88.5518ZM251.318 88.5518H235.318V72.5518H251.318V88.5518ZM325.091 88.5518H309.091V72.5518H325.091V88.5518ZM398.864 88.5518H382.863V72.5518H398.864V88.5518ZM472.637 88.5518H456.637V72.5518H472.637V88.5518ZM546.409 88.5518H530.409V72.5518H546.409V88.5518ZM620.182 88.5518H604.182V72.5518H620.182V88.5518ZM693.955 88.5518H677.955V72.5518H693.955V88.5518ZM767.728 88.5518H751.728V72.5518H767.728V88.5518ZM841.5 88.5518H825.5V72.5518H841.5V88.5518ZM915.272 88.5518H899.272V72.5518H915.272V88.5518ZM989.046 88.5518H973.046V72.5518H989.046V88.5518ZM1062.82 88.5518H1046.82V72.5518H1062.82V88.5518ZM1136.59 88.5518H1120.59V72.5518H1136.59V88.5518ZM1210.36 88.5518H1194.36V72.5518H1210.36V88.5518ZM1284.14 88.5518H1268.14V72.5518H1284.14V88.5518ZM1357.91 88.5518H1341.91V72.5518H1357.91V88.5518ZM1431.68 88.5518H1415.68V72.5518H1431.68V88.5518ZM1505.45 88.5518H1489.45V72.5518H1505.45V88.5518ZM1579.23 88.5518H1563.23V72.5518H1579.23V88.5518ZM37.7148 0C39.0303 1.21581 40.4813 2.287 42.0439 3.18652C34.846 7.32991 30 15.1003 30 24.002V0H37.7148ZM1637 24.002C1637 15.1 1632.15 7.3298 1624.96 3.18652C1626.52 2.28692 1627.97 1.216 1629.29 0H1637V24.002ZM111.49 6.37207C107.118 10.4121 104.253 16.0571 103.829 22.3721H87.7168C87.2933 16.0571 84.4278 10.4121 80.0557 6.37207H111.49ZM185.263 6.37207C180.891 10.4121 178.025 16.0571 177.602 22.3721H161.489C161.066 16.057 158.2 10.4121 153.828 6.37207H185.263ZM259.036 6.37207C254.664 10.4121 251.799 16.057 251.375 22.3721H235.262C234.838 16.057 231.973 10.4121 227.601 6.37207H259.036ZM332.809 6.37207C328.436 10.4121 325.571 16.057 325.147 22.3721H309.035C308.612 16.0571 305.746 10.4121 301.374 6.37207H332.809ZM406.581 6.37207C402.209 10.4121 399.343 16.0571 398.92 22.3721H382.808C382.384 16.0571 379.519 10.4121 375.146 6.37207H406.581ZM480.354 6.37207C475.981 10.4121 473.116 16.0571 472.692 22.3721H456.58C456.157 16.057 453.291 10.4121 448.919 6.37207H480.354ZM554.127 6.37207C549.755 10.4121 546.889 16.057 546.466 22.3721H530.353C529.929 16.057 527.064 10.4121 522.691 6.37207H554.127ZM627.899 6.37207C623.527 10.4121 620.662 16.0571 620.238 22.3721H604.126C603.702 16.0571 600.837 10.4121 596.465 6.37207H627.899ZM701.672 6.37207C697.3 10.4121 694.434 16.0571 694.011 22.3721H677.898C677.475 16.0571 674.609 10.4121 670.237 6.37207H701.672ZM775.445 6.37207C771.073 10.4121 768.208 16.0569 767.784 22.3721H751.671C751.247 16.057 748.382 10.4121 744.01 6.37207H775.445ZM849.218 6.37207C844.846 10.4121 841.98 16.057 841.557 22.3721H825.443C825.02 16.0569 822.155 10.4121 817.782 6.37207H849.218ZM922.99 6.37207C918.618 10.4121 915.753 16.0571 915.329 22.3721H899.217C898.793 16.0571 895.928 10.4121 891.556 6.37207H922.99ZM996.763 6.37207C992.391 10.4121 989.525 16.0571 989.102 22.3721H972.989C972.566 16.0571 969.7 10.4121 965.328 6.37207H996.763ZM1070.54 6.37207C1066.16 10.4121 1063.3 16.0569 1062.88 22.3721H1046.76C1046.34 16.057 1043.47 10.4121 1039.1 6.37207H1070.54ZM1144.31 6.37207C1139.94 10.4121 1137.07 16.057 1136.65 22.3721H1120.53C1120.11 16.0569 1117.25 10.4121 1112.87 6.37207H1144.31ZM1218.08 6.37207C1213.71 10.4121 1210.84 16.0571 1210.42 22.3721H1194.31C1193.88 16.0571 1191.02 10.4121 1186.65 6.37207H1218.08ZM1291.85 6.37207C1287.48 10.4121 1284.62 16.0571 1284.19 22.3721H1268.08C1267.66 16.0571 1264.79 10.4121 1260.42 6.37207H1291.85ZM1365.63 6.37207C1361.25 10.4121 1358.39 16.0569 1357.97 22.3721H1341.85C1341.43 16.057 1338.56 10.4121 1334.19 6.37207H1365.63ZM1439.4 6.37207C1435.03 10.4121 1432.16 16.057 1431.74 22.3721H1415.62C1415.2 16.0569 1412.34 10.4121 1407.96 6.37207H1439.4ZM1513.17 6.37207C1508.8 10.4121 1505.93 16.0571 1505.51 22.3721H1489.4C1488.97 16.0571 1486.11 10.4121 1481.74 6.37207H1513.17ZM1586.94 6.37207C1582.57 10.4121 1579.71 16.0571 1579.28 22.3721H1563.17C1562.75 16.0571 1559.88 10.4121 1555.51 6.37207H1586.94Z" fill="#06120D"/>
</svg>
